<svg width="80" height="80" viewBox="0 0 80 80" fill="none" xmlns="http://www.w3.org/2000/svg">
<g clip-path="url(#clip0_260_2526)">
<path d="M52.5201 80H1.62598C0.728149 80 0 79.2719 0 78.374V71.5448C0 70.647 0.728149 69.9188 1.62598 69.9188H52.5201V80Z" fill="#AE0000"/>
<path d="M48.9429 69.9188C48.208 71.557 47.8052 73.3606 47.8052 75.2325V75.2844C47.8052 76.0028 47.2229 76.5851 46.5045 76.5851H0V78.374C0 79.2719 0.728149 80 1.62598 80H52.5201V69.9188H48.9429Z" fill="#660D0D"/>
<path d="M72.3577 55.7721C72.3577 52.0007 69.2998 48.9429 65.5284 48.9429C61.7565 48.9429 58.6992 52.0007 58.6992 55.7721V59.0247C58.6992 62.796 61.7565 65.8539 65.5284 65.8539C69.2998 65.8539 72.3577 62.796 72.3577 59.0247V55.7721Z" fill="#FECCC1"/>
<path d="M65.5289 48.9429C65.0553 48.9429 64.5933 48.9917 64.1465 49.0833C67.2556 49.7223 69.5939 52.4744 69.5939 55.7721V59.0247C69.5939 62.3224 67.2556 65.0745 64.1465 65.7135C64.5933 65.8051 65.0553 65.8539 65.5289 65.8539C69.3003 65.8539 72.3582 62.796 72.3582 59.0247V55.7721C72.3582 52.0007 69.3003 48.9429 65.5289 48.9429Z" fill="#F9B3A7"/>
<path d="M79.9995 78.374V75.2325C79.9995 71.0779 77.3683 67.3792 73.4437 66.0162L69.9617 64.8077C68.8563 64.4238 67.6948 64.2279 66.5248 64.2279H64.5314C63.3613 64.2279 62.1992 64.4238 61.0945 64.8077L57.6124 66.0162C53.6879 67.3792 51.0566 71.0779 51.0566 75.2325V80H78.3735C79.2714 80 79.9995 79.2719 79.9995 78.374Z" fill="#636363"/>
<path d="M73.4451 66.0162L72.5332 65.6995C74.9374 67.5092 76.4236 70.3735 76.4236 73.4961V80H78.3749C79.2727 80 80.0009 79.2719 80.0009 78.374V75.2325C80.0009 71.0779 77.3696 67.3792 73.4451 66.0162Z" fill="#494949"/>
<path d="M35.2328 55.9351L32.8457 55.1062V55.1221L27.3171 64.7156L21.7886 55.1221L21.7867 55.1068L19.4015 55.9351C15.4769 57.298 12.8457 60.9967 12.8457 65.1514V69.9188H41.7886V65.1514C41.7886 60.9967 39.158 57.298 35.2328 55.9351Z" fill="#636363"/>
<path d="M35.2322 55.9351L34.3203 55.6183C36.7245 57.428 38.2113 60.2924 38.2113 63.4149V69.9188H41.788V65.1514C41.788 60.9967 39.1573 57.298 35.2322 55.9351Z" fill="#494949"/>
<path d="M21.787 55.1221L27.3156 64.7156L32.8441 55.1221V55.1062L30.0798 54.1461H24.5513L21.7852 55.1068L21.787 55.1221Z" fill="#DDF5FF"/>
<path d="M34.1467 45.6909C34.1467 41.9196 31.0895 38.8617 27.3175 38.8617C23.5461 38.8617 20.4883 41.9196 20.4883 45.6909V48.9429C20.4883 52.7148 23.5461 55.7721 27.3175 55.7721C31.0895 55.7721 34.1467 52.7148 34.1467 48.9429V45.6909Z" fill="#FECCC1"/>
<path d="M27.3174 38.8617C26.8444 38.8617 26.3817 38.9099 25.9355 39.0015C29.0447 39.6405 31.3823 42.3926 31.3823 45.6909V48.9429C31.3823 52.2412 29.0447 54.9933 25.9355 55.6323C26.3817 55.7239 26.8438 55.7721 27.3174 55.7721C31.0894 55.7721 34.1466 52.7148 34.1466 48.9429V45.6909C34.1466 41.9196 31.0894 38.8617 27.3174 38.8617Z" fill="#F9B3A7"/>
<path d="M41.3007 0H6.50391C2.91199 0 0 2.91199 0 6.50391V23.4149C0 27.0068 2.91199 29.9188 6.50391 29.9188H10.0812L15.9906 35.8282C16.8103 36.6479 18.2117 36.0675 18.2117 34.9084V29.9188H41.3007C44.8926 29.9188 47.8046 27.0068 47.8046 23.4149V6.50391C47.8046 2.91199 44.8932 0 41.3007 0Z" fill="#8DB0FF"/>
<path d="M41.3007 0H6.50391C2.91199 0 0 2.91199 0 6.50391V23.4149C0 27.0068 2.91199 29.9188 6.50391 29.9188H10.0812L15.9906 35.8282C16.8103 36.6479 18.2117 36.0675 18.2117 34.9084V29.9188H41.3007C44.8926 29.9188 47.8046 27.0068 47.8046 23.4149V6.50391C47.8046 2.91199 44.8932 0 41.3007 0Z" fill="#CECECE"/>
<path d="M6.50391 26.6669C2.91199 26.6669 0 23.7549 0 20.1624V23.4149C0 27.0068 2.91199 29.9188 6.50391 29.9188H10.0812L15.9906 35.8282C16.8103 36.6479 18.2117 36.0675 18.2117 34.9084V34.7968L11.0339 27.619C10.4242 27.0093 9.59656 26.6669 8.73413 26.6669H6.50391Z" fill="#868686"/>
<path d="M41.2999 0H37.235C39.5494 0 41.5807 1.2085 42.7336 3.02917C43.4197 4.11316 42.6433 5.52856 41.361 5.52856H38.6986C33.3104 5.52856 28.9421 9.89624 28.9421 15.2844V25.0409C28.9421 25.9387 28.2146 26.6669 27.3162 26.6669H21.4629C19.6666 26.6669 18.2109 28.1226 18.2109 29.9188H41.2999C44.8918 29.9188 47.8038 27.0068 47.8038 23.4149V6.50391C47.8038 2.91199 44.8925 0 41.2999 0Z" fill="#797979"/>
<path d="M38.6992 8.78052H73.496C77.0879 8.78052 79.9999 11.6925 79.9999 15.2844V32.1954C79.9999 35.7874 77.0879 38.6993 73.496 38.6993H56.7479V43.689C56.7479 44.848 55.3466 45.4279 54.5275 44.6088L48.618 38.6993H38.6992C35.1073 38.6993 32.1953 35.7874 32.1953 32.1954V15.2844C32.1953 11.6925 35.1067 8.78052 38.6992 8.78052Z" fill="#BC312A"/>
<path d="M38.6992 35.1221C35.1073 35.1221 32.1953 32.2101 32.1953 28.6176V32.1948C32.1953 35.7867 35.1073 38.6993 38.6992 38.6993H48.618L54.5275 44.6088C55.3466 45.4279 56.7479 44.8474 56.7479 43.689V43.252L49.5702 36.0742C48.9604 35.4645 48.1334 35.1221 47.2704 35.1221H38.6992Z" fill="#87090D"/>
<path d="M73.4961 8.78052H69.4312C73.0231 8.78052 75.9351 11.6925 75.9351 15.2844V31.8701C75.9351 33.6658 74.4788 35.1221 72.6831 35.1221H60C58.2037 35.1221 56.748 36.5778 56.748 38.374V38.6993H73.4961C77.088 38.6993 80 35.7867 80 32.1948V15.2844C80 11.6925 77.088 8.78052 73.4961 8.78052Z" fill="#87090D"/>
</g>
<defs>
<clipPath id="clip0_260_2526">
<rect width="80" height="80" fill="white"/>
</clipPath>
</defs>
</svg>
